# xmcd
#
# Track frame offsets:
#	152
#	18552
#	41548
#	61284
#	77807
#	100731
#	114013
#	118402
#	136885
#	160907
#
# Disc length: 2472 seconds
#
# Revision: 0
# Processed by: cddbd v1.4PL0 Copyright (c) Steve Scherf et al.
# Submitted via: dBpowerAMP V4.0
#
DISCID=7b09a60a
DTITLE=Natasha(T-Honey) Brown - I NEED TO BE LOVED
DYEAR=1900
DGENRE=Blues
TTITLE0=Track01  I Need To Be Loved
TTITLE1=Track02  It's That Man
TTITLE2=Track03  If You Think You Are Taking My Man
TTITLE3=Track04  Keep The Man I Got
TTITLE4=Track05  Waiting For You
TTITLE5=Track06  If You Think 'Bout Cheating
TTITLE6=Track07  Joy
TTITLE7=Track08  Lack Of Communication
TTITLE8=Track09  There You Go
TTITLE9=Track10  Let It Go
EXTD=
EXTT0=
EXTT1=
EXTT2=
EXTT3=
EXTT4=
EXTT5=
EXTT6=
EXTT7=
EXTT8=
EXTT9=
PLAYORDER=
